<svg width="20" height="17" viewBox="0 0 20 17" fill="none" xmlns="http://www.w3.org/2000/svg">
<path fill-rule="evenodd" clip-rule="evenodd" d="M0.200012 1.52778C0.200012 1.15647 0.347512 0.800379 0.610063 0.537828C0.872614 0.275277 1.22871 0.127777 1.60001 0.127777H18.4C18.7713 0.127777 19.1274 0.275277 19.39 0.537828C19.6525 0.800379 19.8 1.15647 19.8 1.52778C19.8 1.89908 19.6525 2.25518 19.39 2.51773C19.1274 2.78028 18.7713 2.92778 18.4 2.92778H1.60001C1.22871 2.92778 0.872614 2.78028 0.610063 2.51773C0.347512 2.25518 0.200012 1.89908 0.200012 1.52778ZM0.200012 8.52778C0.200012 8.15647 0.347512 7.80038 0.610063 7.53783C0.872614 7.27528 1.22871 7.12778 1.60001 7.12778H10C10.3713 7.12778 10.7274 7.27528 10.99 7.53783C11.2525 7.80038 11.4 8.15647 11.4 8.52778C11.4 8.89908 11.2525 9.25518 10.99 9.51773C10.7274 9.78028 10.3713 9.92778 10 9.92778H1.60001C1.22871 9.92778 0.872614 9.78028 0.610063 9.51773C0.347512 9.25518 0.200012 8.89908 0.200012 8.52778ZM0.200012 15.5278C0.200012 15.1565 0.347512 14.8004 0.610063 14.5378C0.872614 14.2753 1.22871 14.1278 1.60001 14.1278H18.4C18.7713 14.1278 19.1274 14.2753 19.39 14.5378C19.6525 14.8004 19.8 15.1565 19.8 15.5278C19.8 15.8991 19.6525 16.2552 19.39 16.5177C19.1274 16.7803 18.7713 16.9278 18.4 16.9278H1.60001C1.22871 16.9278 0.872614 16.7803 0.610063 16.5177C0.347512 16.2552 0.200012 15.8991 0.200012 15.5278Z" fill="#111827"/>
</svg>
